<?xml version="1.0" encoding="iso-8859-1"?>
<!-- Generator: Adobe Illustrator 19.0.0, SVG Export Plug-In . SVG Version: 6.00 Build 0)  -->
<svg version="1.1" id="Layer_1" xmlns="http://www.w3.org/2000/svg" xmlns:xlink="http://www.w3.org/1999/xlink" x="0px" y="0px"
	 viewBox="0 0 512 512" style="enable-background:new 0 0 512 512;" xml:space="preserve">
<path style="fill:#FF8163;" d="M219.898,387.317l5.264,16.263c0.759,2.344,2.934,3.931,5.389,3.931h50.899
	c2.454,0,4.63-1.587,5.387-3.931l5.264-16.263H219.898z"/>
<path id="SVGCleanerId_0" style="fill:#FFBAC5;" d="M504.163,382.092c0,2.873-2.351,5.224-5.224,5.224H13.061
	c-2.873,0-5.224-2.351-5.224-5.224V94.647c0-2.873,2.351-5.224,5.224-5.224h485.878c2.873,0,5.224,2.351,5.224,5.224V382.092z"/>
<g>
	<path id="SVGCleanerId_0_1_" style="fill:#FFBAC5;" d="M504.163,382.092c0,2.873-2.351,5.224-5.224,5.224H13.061
		c-2.873,0-5.224-2.351-5.224-5.224V94.647c0-2.873,2.351-5.224,5.224-5.224h485.878c2.873,0,5.224,2.351,5.224,5.224V382.092z"/>
</g>
<polygon style="fill:#AADDC0;" points="275.264,365.767 275.264,430.604 299.627,417.521 322.857,430.604 322.857,365.767 "/>
<path style="fill:#F7EFD0;" d="M482.633,360.542c0,2.873-2.351,5.224-5.224,5.224H34.591c-2.873,0-5.224-2.351-5.224-5.224V86.622
	c0-2.873,2.351-5.224,5.224-5.224h442.816c2.873,0,5.224,2.351,5.224,5.224v273.92H482.633z"/>
<path style="fill:#FFF9E9;" d="M256,360.542c0,2.873-2.351,5.224-5.224,5.224H34.591c-2.873,0-5.224-2.351-5.224-5.224V86.622
	c0-2.873,2.351-5.224,5.224-5.224h216.184c2.873,0,5.224,2.351,5.224,5.224V360.542z"/>
<path style="fill:#E84731;" d="M142.684,261.963c-1.922,0-3.762-0.77-5.118-2.137l-49.945-50.329
	c-7.061-7.108-10.951-16.562-10.951-26.617c0-10.053,3.889-19.503,10.951-26.615c7.059-7.107,16.447-11.026,26.434-11.026
	c9.986,0,19.376,3.918,26.436,11.027l2.193,2.208l2.193-2.208c7.062-7.108,16.449-11.027,26.436-11.027
	c9.985,0,19.373,3.918,26.435,11.027c7.06,7.112,10.951,16.562,10.951,26.615c0,10.055-3.89,19.508-10.951,26.617l-49.945,50.329
	C146.443,261.193,144.602,261.963,142.684,261.963z"/>
<g style="opacity:0.1;">
	<path d="M51.31,86.622c0-2.873-2.351-5.224-5.224-5.224H34.591c-2.873,0-5.224,2.351-5.224,5.224v273.92
		c0,2.873,2.351,5.224,5.224,5.224h11.494c2.873,0,5.224-2.351,5.224-5.224V86.622z"/>
</g>
<g style="opacity:0.1;">
	<path d="M278.988,86.622c0-2.873-2.351-5.224-5.224-5.224h-11.494c-2.873,0-5.226,2.351-5.226,5.224v273.92
		c0,2.873,2.352,5.224,5.226,5.224h11.494c2.873,0,5.224-2.351,5.224-5.224V86.622z"/>
</g>
<path style="opacity:0.1;enable-background:new    ;" d="M164.627,240.126c-1.922,0-3.762-0.77-5.118-2.137l-49.945-50.329
	c-7.061-7.108-10.951-16.562-10.951-26.617c0-4.682,0.854-9.231,2.469-13.476c-4.998,1.858-9.583,4.794-13.462,8.7
	c-7.061,7.112-10.951,16.562-10.951,26.615c0,10.055,3.889,19.508,10.951,26.617l49.945,50.329c1.357,1.367,3.196,2.137,5.118,2.137
	c1.919,0,3.761-0.77,5.118-2.137l20.66-20.819C167.32,239.728,165.995,240.126,164.627,240.126z"/>
<path style="fill:#FF8163;" d="M402.128,181.496c-0.842,0-1.65-0.339-2.245-0.938l-21.919-22.087
	c-3.099-3.119-4.807-7.267-4.807-11.681c0-4.412,1.707-8.559,4.807-11.681c3.099-3.119,7.218-4.838,11.602-4.838
	s8.503,1.719,11.602,4.838l0.962,0.971l0.962-0.971c3.1-3.119,7.218-4.838,11.602-4.838c4.381,0,8.502,1.719,11.602,4.838
	c3.098,3.121,4.805,7.269,4.805,11.681c0,4.414-1.707,8.561-4.805,11.681l-21.919,22.087
	C403.779,181.157,402.969,181.496,402.128,181.496z"/>
<path d="M193.415,289.959H94.977c-4.328,0-7.837,3.508-7.837,7.837c0,4.329,3.509,7.837,7.837,7.837h98.438
	c4.328,0,7.837-3.508,7.837-7.837C201.252,293.468,197.744,289.959,193.415,289.959z"/>
<path d="M132.005,265.35c2.85,2.87,6.643,4.451,10.679,4.451c3.976,0,7.867-1.622,10.681-4.453l31.795-32.039
	c3.048-3.072,3.029-8.034-0.042-11.082c-3.073-3.05-8.034-3.031-11.083,0.042l-31.35,31.59l-49.504-49.883
	c-5.593-5.63-8.674-13.121-8.674-21.093c0-7.968,3.08-15.459,8.674-21.092c5.58-5.618,12.994-8.712,20.875-8.712
	c7.882,0,15.295,3.094,20.876,8.712l2.193,2.208c1.471,1.482,3.473,2.314,5.561,2.314c2.088,0,4.09-0.834,5.56-2.314l2.191-2.207
	c5.583-5.618,12.996-8.713,20.876-8.713s15.293,3.094,20.874,8.711c5.594,5.635,8.675,13.126,8.675,21.093
	c0,7.35-2.666,14.399-7.505,19.849c-2.875,3.237-2.58,8.19,0.656,11.064c3.237,2.875,8.19,2.58,11.063-0.656
	c7.39-8.322,11.459-19.067,11.459-30.257c0-12.132-4.697-23.545-13.227-32.138c-8.546-8.602-19.908-13.34-31.995-13.34
	c-10.56,0-20.568,3.616-28.628,10.269c-8.059-6.652-18.067-10.269-28.629-10.269c-12.087,0-23.45,4.738-31.996,13.341
	c-8.53,8.59-13.226,20.002-13.226,32.137c0,12.14,4.698,23.553,13.224,32.137L132.005,265.35z"/>
<path d="M498.939,81.586h-9.481c-1.976-4.708-6.632-8.025-12.049-8.025H407.51c-4.329,0-7.837,3.508-7.837,7.837
	s3.508,7.837,7.837,7.837h67.286V357.93h-210.96V89.234h110.237c4.329,0,7.837-3.508,7.837-7.837s-3.508-7.837-7.837-7.837H34.591
	c-5.418,0-10.073,3.317-12.049,8.025h-9.481C5.859,81.586,0,87.444,0,94.647v287.446c0,7.202,5.859,13.061,13.061,13.061h56.947
	c4.328,0,7.837-3.508,7.837-7.837s-3.509-7.837-7.837-7.837H15.673V97.259h5.857v263.283c0,7.202,5.859,13.061,13.061,13.061
	h216.184h16.652v5.876H107.623c-4.328,0-7.837,3.508-7.837,7.837c0,4.329,3.509,7.837,7.837,7.837h106.573l3.509,10.84
	c1.811,5.594,6.973,9.354,12.845,9.354h36.877v15.257c0,2.757,1.448,5.311,3.814,6.725c2.367,1.415,5.301,1.482,7.729,0.179
	l20.566-11.042l19.475,10.967c4.765,2.681,11.683-0.628,11.683-6.828v-35.45h168.245c7.202,0,13.061-5.859,13.061-13.061V94.647
	C512,87.444,506.141,81.586,498.939,81.586z M248.163,357.93H37.204V89.234h210.96V357.93z M267.427,399.674h-35.292l-1.463-4.52
	h36.756v4.52H267.427z M315.02,417.196l-11.548-6.504c-2.34-1.317-5.189-1.346-7.554-0.075l-12.819,6.883v-43.896h31.92v43.593
	H315.02z M496.327,379.48H330.693v-5.876h146.714c7.202,0,13.061-5.859,13.061-13.061V97.259h5.858V379.48z"/>
<path d="M301.327,151.796h38.527c4.329,0,7.837-3.508,7.837-7.837c0-4.329-3.508-7.837-7.837-7.837h-38.527
	c-4.329,0-7.837,3.508-7.837,7.837C293.49,148.287,296.998,151.796,301.327,151.796z"/>
<path d="M301.327,189.332h49.859c4.329,0,7.837-3.508,7.837-7.837c0-4.329-3.508-7.837-7.837-7.837h-49.859
	c-4.329,0-7.837,3.508-7.837,7.837C293.49,185.824,296.998,189.332,301.327,189.332z"/>
<path d="M431.098,211.196H301.327c-4.329,0-7.837,3.508-7.837,7.837c0,4.329,3.508,7.837,7.837,7.837h129.771
	c4.329,0,7.837-3.508,7.837-7.837C438.934,214.704,435.427,211.196,431.098,211.196z"/>
<path d="M431.098,248.732H301.327c-4.329,0-7.837,3.508-7.837,7.837c0,4.329,3.508,7.837,7.837,7.837h129.771
	c4.329,0,7.837-3.508,7.837-7.837C438.934,252.241,435.427,248.732,431.098,248.732z"/>
<path d="M431.098,286.269H301.327c-4.329,0-7.837,3.508-7.837,7.837c0,4.329,3.508,7.837,7.837,7.837h129.771
	c4.329,0,7.837-3.508,7.837-7.837C438.934,289.777,435.427,286.269,431.098,286.269z"/>
<path d="M431.852,129.586c-4.581-4.611-10.676-7.151-17.16-7.151c-4.5,0-8.812,1.223-12.563,3.514
	c-3.749-2.29-8.062-3.514-12.564-3.514c-6.485,0-12.58,2.54-17.162,7.153c-4.566,4.6-7.081,10.709-7.081,17.202
	c0,6.496,2.515,12.606,7.08,17.201l21.925,22.094c2.053,2.064,4.896,3.246,7.801,3.246c2.903,0,5.745-1.182,7.811-3.254
	l21.916-22.085c4.566-4.598,7.081-10.708,7.081-17.203C438.934,140.297,436.42,134.189,431.852,129.586z M420.73,152.95
	l-18.602,18.747l-18.607-18.749c-1.631-1.641-2.529-3.827-2.529-6.158c0-2.328,0.899-4.515,2.529-6.158
	c1.617-1.628,3.764-2.524,6.042-2.524c2.28,0,4.424,0.895,6.036,2.519l0.962,0.971c1.471,1.484,3.474,2.319,5.564,2.319
	c2.09,0,4.093-0.835,5.564-2.319l0.956-0.964c1.619-1.629,3.766-2.526,6.044-2.526c2.279,0,4.424,0.897,6.038,2.521
	c1.632,1.644,2.531,3.832,2.531,6.161C423.261,149.12,422.363,151.307,420.73,152.95z"/>
<g>
</g>
<g>
</g>
<g>
</g>
<g>
</g>
<g>
</g>
<g>
</g>
<g>
</g>
<g>
</g>
<g>
</g>
<g>
</g>
<g>
</g>
<g>
</g>
<g>
</g>
<g>
</g>
<g>
</g>
</svg>
